<svg xmlns="http://www.w3.org/2000/svg" viewBox="0 0 14 14"><path fill="#666" fill-rule="evenodd" stroke="#666" stroke-width=".4" d="M7.9169734 10.10289833c2.1947554 0 3.9797577-1.7862291 3.9797577-3.98343812 0-2.1947554-1.7850023-3.9809845-3.9797577-3.9809845-2.19843582 0-3.98711853 1.7862291-3.98711853 3.9809845 0 .97899097.35700046 1.91933754 1.0096611 2.64990034.7557123.84710934 1.84143535 1.3335378 2.97745744 1.3335378m-3.99447936-.78944947C3.19745186 8.40745284 2.795673 7.28615243 2.795673 6.1194602 2.795673 3.2965803 5.09348008 1 7.9169734 1 10.73617293 1 13.03398 3.29658028 13.03398 6.1194602c0 2.82226653-2.29780708 5.1170066-5.1170066 5.1170066-1.16975923 0-2.29105965-.4054593-3.19153503-1.12252722L1.9645121 12.8331544C1.8571666 12.9423401 1.7124036 13 1.5664137 13c-.1447631 0-.2919798-.0588867-.4036191-.170526-.2183714-.223892-.2183714-.5833461.0079742-.8023309l2.75172523-2.71369424z"/></svg>