<?xml version="1.0" encoding="utf-8"?>
<!-- Generator: Adobe Illustrator 16.2.0, SVG Export Plug-In . SVG Version: 6.00 Build 0)  -->
<!DOCTYPE svg PUBLIC "-//W3C//DTD SVG 1.1//EN" "http://www.w3.org/Graphics/SVG/1.1/DTD/svg11.dtd">
<svg version="1.1" id="Layer_1" xmlns="http://www.w3.org/2000/svg" xmlns:xlink="http://www.w3.org/1999/xlink" x="0px" y="0px"
	 width="59.53px" height="79.37px" viewBox="0 0 59.53 79.37" enable-background="new 0 0 59.53 79.37" xml:space="preserve">
<g id="Page-1">
	<g id="Movers-banner-06" transform="translate(-453.000000, -412.000000)">
		<g id="Group-4" transform="translate(453.000000, 407.000000)">
			<g id="Group-6" transform="translate(0.000000, 5.000000)">
				<g id="Clip-5">
				</g>
				<defs>
					<filter id="Adobe_OpacityMaskFilter" filterUnits="userSpaceOnUse" x="0.481" y="0.608" width="58.567" height="78.153">
						<feColorMatrix  type="matrix" values="1 0 0 0 0  0 1 0 0 0  0 0 1 0 0  0 0 0 1 0"/>
					</filter>
				</defs>
				<mask maskUnits="userSpaceOnUse" x="0.481" y="0.608" width="58.567" height="78.153" id="mask-2_2_">
					<g filter="url(#Adobe_OpacityMaskFilter)">
						<path id="path-1_2_" fill="#FFFFFF" d="M48.429,10.378L23.723,10.43c-0.351,0.005-0.667,0.215-0.796,0.538L11.504,39.692
							c-0.105,0.259-0.066,0.555,0.094,0.784c0.163,0.229,0.487,0.351,0.715,0.362l10.094-0.11L10.314,67.813
							c-0.167,0.373-0.034,0.816,0.314,1.038c0.142,0.095,0.309,0.144,0.47,0.144c0.231,0,0.461-0.094,0.628-0.273l37.329-39.516
							c0.234-0.241,0.295-0.6,0.159-0.908c-0.136-0.306-0.444-0.502-0.785-0.502H33.877l15.178-16.004
							c0.236-0.243,0.298-0.599,0.16-0.907C49.078,10.576,48.771,10.378,48.429,10.378L48.429,10.378z"/>
					</g>
				</mask>
				<polygon id="Fill-4" mask="url(#mask-2_2_)" fill="#FFFFFF" points="0.481,78.762 59.049,78.762 59.049,0.608 0.481,0.608 				
					"/>
			</g>
		</g>
	</g>
</g>
</svg>
