<?xml version="1.0" encoding="utf-8"?>
<!-- Generator: Adobe Illustrator 16.2.0, SVG Export Plug-In . SVG Version: 6.00 Build 0)  -->
<!DOCTYPE svg PUBLIC "-//W3C//DTD SVG 1.1//EN" "http://www.w3.org/Graphics/SVG/1.1/DTD/svg11.dtd">
<svg version="1.1" id="Layer_1" xmlns="http://www.w3.org/2000/svg" xmlns:xlink="http://www.w3.org/1999/xlink" x="0px" y="0px"
	 width="59.53px" height="79.37px" viewBox="0 0 59.53 79.37" enable-background="new 0 0 59.53 79.37" xml:space="preserve">
<g id="Page-1_1_">
	<g id="Movers-banner-06_1_" transform="translate(-641.000000, -407.000000)">
		<g id="Group-4_1_" transform="translate(453.000000, 407.000000)">
			<g id="Group-3" transform="translate(188.000000, 0.000000)">
				<g id="Clip-2">
				</g>
				<defs>
					<filter id="Adobe_OpacityMaskFilter" filterUnits="userSpaceOnUse" x="2.395" y="3.013" width="55.881" height="72.411">
						<feColorMatrix  type="matrix" values="1 0 0 0 0  0 1 0 0 0  0 0 1 0 0  0 0 0 1 0"/>
					</filter>
				</defs>
				<mask maskUnits="userSpaceOnUse" x="2.395" y="3.013" width="55.881" height="72.411" id="mask-2_2_">
					<g filter="url(#Adobe_OpacityMaskFilter)">
						<path id="path-1_2_" fill="#FFFFFF" d="M30.959,12.682l-0.168,0.259c-2.017,2.913-4.619,6.242-7.371,9.765
							c-2.833,3.627-5.762,7.378-8.187,10.856c-3.796,5.455-3.824,12.623-3.824,12.924c0,0.051,0.002,0.1,0.013,0.149
							c-0.007,0.091-0.013,0.185-0.013,0.285c0,10.725,8.488,19.45,18.925,19.45c10.023,0,18.264-7.996,18.871-18.254
							c0.035-0.1,0.059-0.211,0.059-0.318l-0.015-0.588l-0.852,0.016l0.856-0.082c0-0.02,0.01-0.201,0.01-0.224
							c0-0.71-0.046-1.393-0.14-2.048c-0.669-7.654-3.627-14.101-3.753-14.374c-0.164-0.347-0.525-0.556-0.904-0.48
							c-0.373,0.063-0.662,0.369-0.707,0.759c-0.119,1.015-0.772,3.855-2.364,4.804c-0.772,0.458-1.695,0.437-2.827-0.058
							c-4.445-1.951-7.56-16.843-6.08-21.718c0.186-0.615,0.398-1.312-0.301-1.65c-0.129-0.059-0.252-0.091-0.371-0.091
							C31.506,12.065,31.218,12.272,30.959,12.682z"/>
					</g>
				</mask>
				<polygon id="Fill-1" mask="url(#mask-2_2_)" fill="#FFFFFF" points="2.395,75.424 58.275,75.424 58.275,3.013 2.395,3.013 				
					"/>
			</g>
		</g>
	</g>
</g>
</svg>
